<svg width="500" height="500" viewBox="0 0 500 500" fill="none" xmlns="http://www.w3.org/2000/svg">
<path fill-rule="evenodd" clip-rule="evenodd" d="M251.238 69.1831C250.707 68.939 250.097 68.939 249.566 69.1831L28.1639 171.069C26.5789 171.798 26.6226 174.066 28.2346 174.733L249.637 266.441C250.127 266.644 250.677 266.644 251.167 266.441L472.569 174.733C474.181 174.066 474.225 171.798 472.64 171.069L251.238 69.1831ZM252.701 180.363C269.542 180.363 283.194 177.481 283.194 167.657C283.194 157.834 269.542 149.87 252.701 149.87C235.861 149.87 222.209 157.834 222.209 167.657C222.209 177.481 235.861 180.363 252.701 180.363Z" fill="#202A25"/>
<path fill-rule="evenodd" clip-rule="evenodd" d="M222.547 170.198H113.402C111.745 170.198 110.402 171.541 110.402 173.198V366.678C110.402 367.851 111.085 368.916 112.151 369.405L246.368 430.938C247.162 431.302 248.075 431.302 248.868 430.938L383.085 369.405C384.151 368.916 384.835 367.851 384.835 366.678V343.513C384.835 342.793 384.096 342.309 383.436 342.596L269.346 392.191C268.685 392.478 267.947 391.994 267.947 391.273V369.259C267.947 368.86 268.183 368.5 268.549 368.341L384.233 318.054C384.598 317.895 384.835 317.535 384.835 317.136V295.122C384.835 294.402 384.096 293.918 383.436 294.205L269.346 343.799C268.685 344.086 267.947 343.602 267.947 342.882V320.867C267.947 320.469 268.183 320.109 268.549 319.95L384.233 269.662C384.598 269.504 384.835 269.143 384.835 268.745V246.73C384.835 246.01 384.096 245.526 383.436 245.813L269.346 295.408C268.685 295.695 267.947 295.211 267.947 294.491V272.476C267.947 272.078 268.183 271.717 268.549 271.559L384.233 221.271C384.598 221.112 384.835 220.752 384.835 220.354V178.037C384.835 176.381 383.491 175.037 381.835 175.037H279.408C274.214 179.018 264.201 180.362 252.7 180.362C237.411 180.362 224.75 177.987 222.547 170.198Z" fill="#202A25"/>
</svg>
