<svg width="447" height="363" viewBox="0 0 447 363" fill="none" xmlns="http://www.w3.org/2000/svg">
<path fill-rule="evenodd" clip-rule="evenodd" d="M224.238 0.183144C223.707 -0.0610509 223.097 -0.06105 222.566 0.183145L1.16393 102.069C-0.421125 102.798 -0.377361 105.066 1.23466 105.733L222.637 197.441C223.127 197.644 223.677 197.644 224.167 197.441L445.569 105.733C447.181 105.066 447.225 102.798 445.64 102.069L224.238 0.183144ZM225.701 111.363C242.542 111.363 256.194 108.481 256.194 98.6573C256.194 88.8336 242.542 80.87 225.701 80.87C208.861 80.87 195.209 88.8336 195.209 98.6573C195.209 108.481 208.861 111.363 225.701 111.363Z" fill="#202A25"/>
<path fill-rule="evenodd" clip-rule="evenodd" d="M195.547 101.198H86.4017C84.7449 101.198 83.4017 102.541 83.4017 104.198V297.678C83.4017 298.851 84.0853 299.916 85.1515 300.405L219.368 361.938C220.162 362.302 221.075 362.302 221.868 361.938L356.085 300.405C357.151 299.916 357.835 298.851 357.835 297.678V274.513C357.835 273.793 357.096 273.309 356.436 273.596L242.346 323.191C241.685 323.478 240.947 322.994 240.947 322.273V300.259C240.947 299.86 241.183 299.5 241.549 299.341L357.233 249.054C357.598 248.895 357.835 248.535 357.835 248.136V226.122C357.835 225.402 357.096 224.918 356.436 225.205L242.346 274.799C241.685 275.086 240.947 274.602 240.947 273.882V251.867C240.947 251.469 241.183 251.109 241.549 250.95L357.233 200.662C357.598 200.504 357.835 200.143 357.835 199.745V177.73C357.835 177.01 357.096 176.526 356.436 176.813L242.346 226.408C241.685 226.695 240.947 226.211 240.947 225.491V203.476C240.947 203.078 241.183 202.717 241.549 202.559L357.233 152.271C357.598 152.112 357.835 151.752 357.835 151.354V109.037C357.835 107.381 356.491 106.037 354.835 106.037H252.408C247.214 110.018 237.201 111.362 225.7 111.362C210.411 111.362 197.75 108.987 195.547 101.198Z" fill="#202A25"/>
</svg>
